<svg width="35" height="36" viewBox="0 0 35 36" fill="none" xmlns="http://www.w3.org/2000/svg">
<path d="M18.2579 34.9726C16.8649 34.969 15.4784 34.7811 14.1347 34.4137C11.9219 33.8163 9.80789 32.7723 7.85222 31.3104C3.96233 28.4038 1.23194 24.2395 0.361109 19.8856C-0.499602 15.582 0.481002 11.1801 3.1222 7.4907C5.75539 3.81257 9.72607 1.2828 14.3026 0.367471C18.8792 -0.547856 23.5173 0.260087 27.3627 2.64263C31.2198 5.03228 33.818 8.71847 34.6787 13.0221C35.5495 17.3762 34.6309 22.2704 32.1581 26.4495C30.9148 28.551 29.3652 30.3277 27.5523 31.7301C25.6118 33.2315 23.4631 34.2257 21.1661 34.6851C20.2086 34.8766 19.2344 34.9729 18.2579 34.9726Z" fill="#FFCC80"/>
<path d="M34.6787 13.0221C34.2084 10.6593 33.1938 8.43872 31.7155 6.5365C31.7155 6.55427 31.7162 6.57191 31.7162 6.58968C31.7162 18.0663 22.4132 27.3693 10.9366 27.3693C8.09252 27.3726 5.27821 26.7901 2.66915 25.6579C4.02576 27.8516 5.78423 29.7694 7.85222 31.3108C9.80809 32.7724 11.9219 33.8164 14.1347 34.4141C15.4784 34.7815 16.8649 34.9694 18.2579 34.973C19.2344 34.9733 20.2086 34.8769 21.1661 34.6854C23.4631 34.226 25.6118 33.2318 27.5524 31.7305C29.3652 30.328 30.9148 28.5514 32.1581 26.4499C34.6307 22.2701 35.5495 17.3759 34.6787 13.0221Z" fill="#FFB74D"/>
<path d="M28.4352 35.0249H23.5445C23.1218 35.0254 22.7144 34.8671 22.403 34.5813C22.0875 34.2931 21.898 33.8924 21.8753 33.4657C21.8739 33.4391 21.8732 33.4124 21.8732 33.3844C21.8729 33.1753 21.9128 32.968 21.9908 32.774C21.7373 32.7018 21.504 32.5717 21.3093 32.3939C20.994 32.1057 20.8045 31.7051 20.7816 31.2784C20.7803 31.2538 20.7796 31.2278 20.7796 31.1971C20.7793 31.0108 20.811 30.8258 20.8732 30.6502H20.2327C19.7977 30.6502 19.3804 30.4774 19.0727 30.1697C18.7651 29.8621 18.5923 29.4448 18.5923 29.0097C18.5923 28.9858 18.5929 28.9612 18.5943 28.9311C18.616 28.5034 18.8057 28.1016 19.122 27.8129C19.3167 27.6351 19.55 27.505 19.8035 27.4328C19.7255 27.2388 19.6856 27.0315 19.6859 26.8224C19.6859 26.7992 19.6866 26.7739 19.688 26.7438C19.7098 26.3161 19.8994 25.9143 20.2157 25.6255C20.5272 25.34 20.9345 25.1817 21.3572 25.1819H25.4468C25.2629 24.8627 25.1625 24.5023 25.1549 24.1341C25.1542 24.1156 25.1542 24.1006 25.1542 24.0896C25.1541 23.794 25.2156 23.5016 25.3347 23.2311C25.4489 22.9707 25.6128 22.735 25.8173 22.5373C26.0209 22.339 26.2603 22.1811 26.5227 22.0718C26.7928 21.9594 27.0824 21.9013 27.375 21.9009H28.4352C29.2969 21.9009 30.1502 22.0707 30.9464 22.4004C31.7425 22.7302 32.4659 23.2136 33.0752 23.8229C33.6846 24.4322 34.1679 25.1556 34.4977 25.9518C34.8275 26.7479 34.9972 27.6012 34.9972 28.4629C34.9972 29.3246 34.8275 30.1779 34.4977 30.9741C34.1679 31.7702 33.6846 32.4936 33.0752 33.1029C32.4659 33.7123 31.7425 34.1956 30.9464 34.5254C30.1502 34.8552 29.2969 35.0249 28.4352 35.0249Z" fill="#F5F5F5"/>
<path d="M12.5464 35.0249H6.56197C4.82163 35.0249 3.15257 34.3335 1.92196 33.1029C0.691349 31.8723 0 30.2033 0 28.4629C0 26.7226 0.691349 25.0535 1.92196 23.8229C3.15257 22.5923 4.82163 21.9009 6.56197 21.9009H8.7158C9.0084 21.9013 9.29806 21.9594 9.56818 22.0718C9.8306 22.1811 10.07 22.339 10.2736 22.5373C10.478 22.735 10.642 22.9707 10.7562 23.2311C10.8753 23.5016 10.9367 23.794 10.9366 24.0896V24.1272L10.9359 24.1306C10.9289 24.5001 10.8285 24.8617 10.6441 25.1819H14.7337C15.1563 25.1817 15.5637 25.34 15.8752 25.6255C16.1917 25.9144 16.3813 26.3165 16.4029 26.7445C16.4042 26.7698 16.4049 26.7958 16.4049 26.8224C16.4053 27.0315 16.3653 27.2388 16.2874 27.4328C16.5408 27.5052 16.7741 27.6352 16.9689 27.8129C17.2855 28.1019 17.4751 28.5043 17.4965 28.9325C17.4979 28.9585 17.4986 28.9845 17.4986 29.0097C17.4986 29.4448 17.3258 29.8621 17.0181 30.1697C16.7105 30.4774 16.2932 30.6502 15.8581 30.6502H15.2176C15.2799 30.8258 15.3116 31.0108 15.3113 31.1971C15.3113 31.2203 15.3106 31.2449 15.3099 31.2736L15.3092 31.2757C15.2875 31.7034 15.0979 32.1052 14.7815 32.3939C14.5869 32.5717 14.3536 32.7018 14.1 32.774C14.178 32.968 14.2179 33.1753 14.2176 33.3844C14.2176 33.4097 14.2169 33.4343 14.2156 33.4609V33.463C14.1938 33.8907 14.0042 34.2926 13.6879 34.5813C13.3765 34.8671 12.969 35.0254 12.5464 35.0249Z" fill="#F5F5F5"/>
<path d="M7.76028 12.8184C7.63395 12.8182 7.51156 12.7743 7.41392 12.6942C7.31628 12.614 7.2494 12.5025 7.22466 12.3786C7.15358 12.0263 7.15266 11.6634 7.22197 11.3107C7.29128 10.958 7.42944 10.6225 7.62857 10.3232C7.82769 10.024 8.08387 9.76694 8.38243 9.5668C8.68099 9.36667 9.01609 9.22737 9.36854 9.15687C9.721 9.08637 10.0839 9.08606 10.4365 9.15595C10.789 9.22584 11.1244 9.36456 11.4233 9.56418C11.7222 9.76381 11.9788 10.0204 12.1784 10.3193C12.3781 10.6182 12.5168 10.9535 12.5867 11.3061C12.6013 11.3767 12.6017 11.4494 12.588 11.5202C12.5744 11.591 12.5468 11.6583 12.507 11.7184C12.4672 11.7785 12.4159 11.8301 12.3561 11.8703C12.2963 11.9105 12.2291 11.9385 12.1584 11.9526C12.0877 11.9667 12.015 11.9668 11.9443 11.9527C11.8736 11.9386 11.8064 11.9107 11.7465 11.8705C11.6867 11.8304 11.6354 11.7788 11.5955 11.7187C11.5557 11.6587 11.5281 11.5913 11.5143 11.5206C11.4721 11.3093 11.3886 11.1085 11.2688 10.9295C11.1489 10.7505 10.9949 10.5968 10.8157 10.4773C10.6364 10.3578 10.4354 10.2748 10.2241 10.233C10.0127 10.1912 9.79521 10.1914 9.58396 10.2337C9.37271 10.2759 9.17185 10.3594 8.99285 10.4793C8.81385 10.5991 8.66022 10.7531 8.54072 10.9324C8.29938 11.2944 8.21173 11.7374 8.29706 12.1641C8.31285 12.2434 8.31084 12.3253 8.29117 12.4038C8.27151 12.4823 8.23468 12.5555 8.18335 12.6181C8.13201 12.6806 8.06744 12.731 7.99428 12.7656C7.92113 12.8002 7.84121 12.8182 7.76028 12.8182V12.8184Z" fill="#424242"/>
<path d="M20.6292 10.2445C20.5029 10.2444 20.3805 10.2005 20.2828 10.1203C20.1852 10.0402 20.1183 9.92869 20.0936 9.80481C19.9514 9.09374 20.0975 8.35531 20.4997 7.75195C20.9019 7.14859 21.5274 6.72974 22.2385 6.58753C22.9495 6.44532 23.688 6.5914 24.2913 6.99365C24.8947 7.39589 25.3135 8.02134 25.4557 8.7324C25.4842 8.87462 25.4549 9.02231 25.3745 9.14298C25.294 9.26365 25.1689 9.34742 25.0267 9.37585C24.8845 9.40429 24.7368 9.37506 24.6161 9.2946C24.4955 9.21415 24.4117 9.08905 24.3833 8.94683C24.3421 8.73458 24.2593 8.53256 24.1398 8.3524C24.0202 8.17224 23.8662 8.01749 23.6867 7.89705C23.5071 7.77661 23.3055 7.69285 23.0935 7.65059C22.8814 7.60833 22.6631 7.60841 22.4511 7.65082C22.2391 7.69322 22.0375 7.77712 21.858 7.89769C21.6786 8.01826 21.5247 8.17311 21.4053 8.35336C21.2859 8.5336 21.2032 8.73567 21.1622 8.94796C21.1211 9.16024 21.1224 9.37854 21.1661 9.59031C21.1819 9.6697 21.1798 9.7516 21.1602 9.83012C21.1405 9.90863 21.1037 9.98181 21.0523 10.0444C21.001 10.107 20.9364 10.1574 20.8632 10.192C20.7901 10.2266 20.7101 10.2445 20.6292 10.2445Z" fill="#424242"/>
<path d="M29.4775 12.1105C29.4634 12.0401 29.4356 11.9731 29.3956 11.9135C29.3557 11.8538 29.3043 11.8026 29.2446 11.7627C29.1848 11.7229 29.1178 11.6952 29.0474 11.6813C28.9769 11.6674 28.9044 11.6674 28.834 11.6815C27.1357 12.021 26.3998 10.6807 26.3709 10.6268C26.3037 10.4993 26.1889 10.4034 26.0514 10.3601C25.9139 10.3168 25.7649 10.3295 25.6367 10.3956C25.5085 10.4616 25.4116 10.5755 25.3671 10.7126C25.3225 10.8497 25.3339 10.9989 25.3987 11.1276C25.5801 11.4613 25.821 11.7588 26.1096 12.0057C26.8338 15.8316 23.3798 19.7433 18.3779 20.7435C13.376 21.7438 8.6832 19.4616 7.88025 15.6512C8.05167 15.3124 8.15961 14.945 8.19871 14.5673C8.21088 14.4228 8.16514 14.2794 8.07155 14.1686C7.97796 14.0578 7.84419 13.9887 7.69966 13.9765C7.55513 13.9643 7.41168 14.0101 7.30088 14.1037C7.19007 14.1972 7.12098 14.331 7.10881 14.4756C7.10272 14.5401 6.93888 16.0605 5.24063 16.4002C5.17021 16.4143 5.10325 16.4421 5.04358 16.4821C4.98391 16.522 4.9327 16.5733 4.89286 16.6331C4.85303 16.6928 4.82535 16.7599 4.81142 16.8303C4.79748 16.9008 4.79756 16.9733 4.81164 17.0437C4.82572 17.1141 4.85354 17.1811 4.8935 17.2407C4.93346 17.3004 4.98478 17.3516 5.04453 17.3914C5.10429 17.4313 5.1713 17.459 5.24175 17.4729C5.3122 17.4868 5.3847 17.4867 5.45512 17.4727C6.04157 17.3639 6.59009 17.1059 7.04777 16.7234C7.67348 18.4926 9.03967 19.9669 10.976 20.9351C12.4823 21.6883 14.2152 22.0738 16.0181 22.0738C16.8826 22.0728 17.7448 21.9864 18.5923 21.8159C21.289 21.2766 23.6656 19.9475 25.2841 18.0734C26.699 16.4351 27.3932 14.5488 27.2904 12.675C27.6167 12.7788 27.9571 12.8311 28.2995 12.8303C28.5511 12.8296 28.802 12.804 29.0486 12.754C29.1908 12.7255 29.3158 12.6418 29.3963 12.5211C29.4767 12.4004 29.5059 12.2527 29.4775 12.1105Z" fill="#EF5350"/>
<path d="M27.3416 27.9161C27.3414 28.0611 27.2837 28.2 27.1812 28.3025C27.0787 28.405 26.9397 28.4627 26.7947 28.4629H18.688C18.778 28.2144 18.9269 27.9913 19.122 27.8129C19.3167 27.6351 19.55 27.505 19.8035 27.4328C19.7953 27.4116 19.7871 27.3905 19.7796 27.3693H26.7947C26.9397 27.3695 27.0787 27.4271 27.1812 27.5296C27.2837 27.6322 27.3414 27.7711 27.3416 27.9161Z" fill="#CFCFCF"/>
<path d="M30.0757 24.6351C30.0755 24.7801 30.0178 24.919 29.9153 25.0215C29.8128 25.124 29.6738 25.1817 29.5289 25.1819H25.4468C25.2629 24.8627 25.1625 24.5023 25.1549 24.1341C25.1542 24.1156 25.1542 24.1006 25.1542 24.0896V24.0883H29.5289C29.6738 24.0885 29.8128 24.1461 29.9153 24.2486C30.0178 24.3511 30.0755 24.4901 30.0757 24.6351Z" fill="#CFCFCF"/>
<path d="M10.9366 24.0883V24.1272L10.9359 24.1306C10.9289 24.5001 10.8285 24.8617 10.6441 25.1819H6.56197C6.41694 25.1819 6.27785 25.1243 6.1753 25.0218C6.07275 24.9192 6.01514 24.7801 6.01514 24.6351C6.01514 24.4901 6.07275 24.351 6.1753 24.2484C6.27785 24.1459 6.41694 24.0883 6.56197 24.0883H10.9366Z" fill="#CFCFCF"/>
<path d="M27.3416 31.1971C27.3414 31.3421 27.2837 31.481 27.1812 31.5835C27.0787 31.6861 26.9397 31.7437 26.7947 31.7439H20.876C20.8213 31.5944 20.7895 31.4375 20.7816 31.2784C20.7803 31.2538 20.7796 31.2279 20.7796 31.1971C20.7793 31.0108 20.811 30.8259 20.8732 30.6503H26.7947C26.9397 30.6505 27.0787 30.7081 27.1812 30.8107C27.2837 30.9132 27.3414 31.0521 27.3416 31.1971Z" fill="#CFCFCF"/>
<path d="M27.3416 33.3844C27.3414 33.5293 27.2837 33.6683 27.1812 33.7708C27.0787 33.8733 26.9397 33.931 26.7947 33.9312H21.9696C21.9151 33.7816 21.8833 33.6247 21.8753 33.4657C21.8739 33.439 21.8732 33.4124 21.8732 33.3844C21.8729 33.1981 21.9046 33.0131 21.9669 32.8375H26.7947C26.9397 32.8377 27.0787 32.8954 27.1812 32.9979C27.2837 33.1004 27.3414 33.2394 27.3416 33.3844Z" fill="#CFCFCF"/>
<path d="M17.4029 28.4629H8.7493C8.60428 28.4629 8.46519 28.4053 8.36264 28.3028C8.26009 28.2002 8.20247 28.0611 8.20247 27.9161C8.20247 27.7711 8.26009 27.632 8.36264 27.5294C8.46519 27.4269 8.60428 27.3693 8.7493 27.3693H16.3113C16.3038 27.3905 16.2956 27.4116 16.2874 27.4328C16.5408 27.5052 16.7741 27.6352 16.9689 27.8129C17.1639 27.9913 17.3128 28.2144 17.4029 28.4629Z" fill="#CFCFCF"/>
<path d="M15.3113 31.1971C15.3113 31.2203 15.3106 31.2449 15.3099 31.2737L15.3092 31.2757C15.3019 31.4356 15.2703 31.5935 15.2156 31.7439H8.7493C8.60428 31.7439 8.46519 31.6863 8.36264 31.5838C8.26009 31.4812 8.20247 31.3421 8.20247 31.1971C8.20247 31.0521 8.26009 30.913 8.36264 30.8104C8.46519 30.7079 8.60428 30.6503 8.7493 30.6503H15.2176C15.2799 30.8258 15.3116 31.0108 15.3113 31.1971Z" fill="#CFCFCF"/>
<path d="M14.2176 33.3844C14.2176 33.4096 14.2169 33.4343 14.2156 33.4609V33.463C14.2082 33.6229 14.1766 33.7807 14.1219 33.9312H8.7493C8.60428 33.9312 8.46519 33.8736 8.36264 33.771C8.26009 33.6685 8.20247 33.5294 8.20247 33.3844C8.20247 33.2393 8.26009 33.1002 8.36264 32.9977C8.46519 32.8951 8.60428 32.8375 8.7493 32.8375H14.124C14.1862 33.0131 14.2179 33.1981 14.2176 33.3844Z" fill="#CFCFCF"/>
<path d="M34.4811 25.9085C34.1521 25.1288 33.6746 24.4204 33.0751 23.8231C32.9226 23.6704 32.7638 23.5261 32.5986 23.3904C33.099 25.8027 32.7032 28.3147 31.4852 30.4562C30.2671 32.5977 28.3104 34.2219 25.9813 35.0249H28.4352C29.5182 35.0244 30.5842 34.756 31.5382 34.2436C32.4923 33.7313 33.3048 32.9908 33.9033 32.0883C34.5019 31.1858 34.8679 30.1493 34.9687 29.071C35.0695 27.9928 34.902 26.9063 34.4811 25.9085Z" fill="#E5E5E5"/>
<path d="M0.516073 25.9085C0.845061 25.1288 1.32261 24.4204 1.92211 23.8231C2.07459 23.6704 2.2334 23.5261 2.39854 23.3904C1.89815 25.8027 2.29401 28.3147 3.51203 30.4562C4.73005 32.5977 6.68674 34.2219 9.01588 35.0249H6.56197C5.47903 35.0244 4.41303 34.756 3.45896 34.2436C2.50488 33.7313 1.69238 32.9908 1.09384 32.0883C0.495306 31.1858 0.129327 30.1493 0.0285186 29.071C-0.0722898 27.9928 0.0952034 26.9063 0.516073 25.9085Z" fill="#E5E5E5"/>
<path d="M4.37465 15.339C5.28067 15.339 6.01514 14.6045 6.01514 13.6985C6.01514 12.7925 5.28067 12.058 4.37465 12.058C3.46863 12.058 2.73416 12.7925 2.73416 13.6985C2.73416 14.6045 3.46863 15.339 4.37465 15.339Z" fill="#FFE4C0"/>
<path d="M28.4352 10.4175C29.3412 10.4175 30.0757 9.68305 30.0757 8.77703C30.0757 7.87101 29.3412 7.13654 28.4352 7.13654C27.5292 7.13654 26.7947 7.87101 26.7947 8.77703C26.7947 9.68305 27.5292 10.4175 28.4352 10.4175Z" fill="#FFE4C0"/>
</svg>
